<svg xmlns="http://www.w3.org/2000/svg" viewBox="0 0 200 200" role="img" aria-label="Charizard">
  <rect width="200" height="200" rx="24" fill="#fdeee4"/>
  <!-- wing hints -->
  <path d="M30 120 C20 70 50 50 74 62 C56 76 48 98 52 122 Z" fill="#3a7a5c"/>
  <path d="M170 120 C180 70 150 50 126 62 C144 76 152 98 148 122 Z" fill="#3a7a5c"/>
  <!-- horns -->
  <path d="M74 46 C70 26 76 14 86 10 L92 40 Z" fill="#e2703a"/>
  <path d="M126 46 C130 26 124 14 114 10 L108 40 Z" fill="#e2703a"/>
  <!-- head -->
  <path d="M100 40 C142 40 156 74 154 104 C152 142 130 170 100 170 C70 170 48 142 46 104 C44 74 58 40 100 40 Z" fill="#e2703a"/>
  <!-- belly/muzzle -->
  <path d="M72 118 C72 100 84 90 100 90 C116 90 128 100 128 118 C128 142 116 158 100 158 C84 158 72 142 72 118 Z" fill="#f7ddae"/>
  <!-- eyes -->
  <path d="M68 84 Q82 74 94 82" stroke="#2b2118" stroke-width="4" fill="none" stroke-linecap="round"/>
  <path d="M132 84 Q118 74 106 82" stroke="#2b2118" stroke-width="4" fill="none" stroke-linecap="round"/>
  <circle cx="82" cy="90" r="6" fill="#2b2118"/>
  <circle cx="118" cy="90" r="6" fill="#2b2118"/>
  <!-- nostrils + jaw -->
  <circle cx="90" cy="120" r="3" fill="#2b2118"/>
  <circle cx="110" cy="120" r="3" fill="#2b2118"/>
  <path d="M78 134 Q100 146 122 134" stroke="#2b2118" stroke-width="3" fill="none" stroke-linecap="round"/>
  <!-- flame -->
  <path d="M158 156 C150 138 160 128 166 120 C164 132 176 136 174 150 C186 144 184 130 180 122 C194 140 184 168 166 170 C156 171 152 164 158 156 Z" fill="#f2c230" stroke="#c8402e" stroke-width="3" stroke-linejoin="round"/>
</svg>
